<mxfile host="app.diagrams.net" modified="2023-10-09T18:03:01.588Z" agent="Mozilla/5.0 (Windows NT 10.0; Win64; x64) AppleWebKit/537.36 (KHTML, like Gecko) Chrome/117.0.0.0 Safari/537.36" etag="QrUqeDSv1tShIAPpSEHM" version="22.0.4" type="device">
  <diagram name="Страница — 1" id="T0oay-IPl8hmQVbWLaKn">
    <mxGraphModel dx="989" dy="523" grid="1" gridSize="10" guides="1" tooltips="1" connect="1" arrows="1" fold="1" page="1" pageScale="1" pageWidth="827" pageHeight="1169" math="0" shadow="0">
      <root>
        <mxCell id="0" />
        <mxCell id="1" parent="0" />
        <mxCell id="6pjKdoYzPDsMWgRs2YGZ-1" value="Туроператор&lt;br&gt;" style="shape=umlActor;verticalLabelPosition=bottom;verticalAlign=top;html=1;outlineConnect=0;" vertex="1" parent="1">
          <mxGeometry x="399" y="390" width="30" height="60" as="geometry" />
        </mxCell>
        <mxCell id="6pjKdoYzPDsMWgRs2YGZ-5" value="Создание тура" style="ellipse;whiteSpace=wrap;html=1;" vertex="1" parent="1">
          <mxGeometry x="220" y="400" width="120" height="80" as="geometry" />
        </mxCell>
        <mxCell id="6pjKdoYzPDsMWgRs2YGZ-6" value="" style="endArrow=none;html=1;rounded=0;exitX=1;exitY=0.5;exitDx=0;exitDy=0;" edge="1" parent="1" source="6pjKdoYzPDsMWgRs2YGZ-5">
          <mxGeometry width="50" height="50" relative="1" as="geometry">
            <mxPoint x="350" y="530" as="sourcePoint" />
            <mxPoint x="400" y="420" as="targetPoint" />
          </mxGeometry>
        </mxCell>
        <mxCell id="6pjKdoYzPDsMWgRs2YGZ-7" value="Оформление договора" style="ellipse;whiteSpace=wrap;html=1;" vertex="1" parent="1">
          <mxGeometry x="490" y="400" width="120" height="80" as="geometry" />
        </mxCell>
        <mxCell id="6pjKdoYzPDsMWgRs2YGZ-8" value="" style="endArrow=none;html=1;rounded=0;exitX=0;exitY=0.5;exitDx=0;exitDy=0;" edge="1" parent="1" source="6pjKdoYzPDsMWgRs2YGZ-7">
          <mxGeometry width="50" height="50" relative="1" as="geometry">
            <mxPoint x="620" y="530" as="sourcePoint" />
            <mxPoint x="430" y="420" as="targetPoint" />
          </mxGeometry>
        </mxCell>
        <mxCell id="6pjKdoYzPDsMWgRs2YGZ-9" value="Прогнозирование продаж" style="ellipse;whiteSpace=wrap;html=1;" vertex="1" parent="1">
          <mxGeometry x="354" y="505" width="120" height="80" as="geometry" />
        </mxCell>
        <mxCell id="6pjKdoYzPDsMWgRs2YGZ-10" value="" style="endArrow=none;html=1;rounded=0;exitX=0.5;exitY=0;exitDx=0;exitDy=0;" edge="1" parent="1" source="6pjKdoYzPDsMWgRs2YGZ-9">
          <mxGeometry width="50" height="50" relative="1" as="geometry">
            <mxPoint x="440" y="490" as="sourcePoint" />
            <mxPoint x="414" y="480" as="targetPoint" />
          </mxGeometry>
        </mxCell>
        <mxCell id="6pjKdoYzPDsMWgRs2YGZ-11" value="Клиент" style="shape=umlActor;verticalLabelPosition=bottom;verticalAlign=top;html=1;outlineConnect=0;" vertex="1" parent="1">
          <mxGeometry x="131" y="625" width="30" height="60" as="geometry" />
        </mxCell>
        <mxCell id="6pjKdoYzPDsMWgRs2YGZ-12" value="Турагент" style="shape=umlActor;verticalLabelPosition=bottom;verticalAlign=top;html=1;outlineConnect=0;" vertex="1" parent="1">
          <mxGeometry x="671" y="625" width="30" height="60" as="geometry" />
        </mxCell>
        <mxCell id="6pjKdoYzPDsMWgRs2YGZ-14" value="Просмотр информации о туре" style="ellipse;whiteSpace=wrap;html=1;" vertex="1" parent="1">
          <mxGeometry x="86" y="480" width="120" height="80" as="geometry" />
        </mxCell>
        <mxCell id="6pjKdoYzPDsMWgRs2YGZ-16" value="Поиск тура" style="ellipse;whiteSpace=wrap;html=1;" vertex="1" parent="1">
          <mxGeometry x="220" y="545" width="120" height="80" as="geometry" />
        </mxCell>
        <mxCell id="6pjKdoYzPDsMWgRs2YGZ-17" value="Формирование тура&amp;nbsp;" style="ellipse;whiteSpace=wrap;html=1;" vertex="1" parent="1">
          <mxGeometry x="490" y="545" width="120" height="80" as="geometry" />
        </mxCell>
        <mxCell id="6pjKdoYzPDsMWgRs2YGZ-18" value="Бронирование тура" style="ellipse;whiteSpace=wrap;html=1;" vertex="1" parent="1">
          <mxGeometry x="220" y="655" width="120" height="80" as="geometry" />
        </mxCell>
        <mxCell id="6pjKdoYzPDsMWgRs2YGZ-19" value="Реализация тура" style="ellipse;whiteSpace=wrap;html=1;" vertex="1" parent="1">
          <mxGeometry x="490" y="655" width="120" height="80" as="geometry" />
        </mxCell>
        <mxCell id="6pjKdoYzPDsMWgRs2YGZ-20" value="Оставить пожелание на сайте" style="ellipse;whiteSpace=wrap;html=1;" vertex="1" parent="1">
          <mxGeometry x="121" y="755" width="120" height="80" as="geometry" />
        </mxCell>
        <mxCell id="6pjKdoYzPDsMWgRs2YGZ-22" value="" style="endArrow=none;html=1;rounded=0;exitX=0.5;exitY=1;exitDx=0;exitDy=0;" edge="1" parent="1" source="6pjKdoYzPDsMWgRs2YGZ-14">
          <mxGeometry width="50" height="50" relative="1" as="geometry">
            <mxPoint x="311" y="585" as="sourcePoint" />
            <mxPoint x="146" y="615" as="targetPoint" />
          </mxGeometry>
        </mxCell>
        <mxCell id="6pjKdoYzPDsMWgRs2YGZ-23" value="" style="endArrow=none;html=1;rounded=0;entryX=0;entryY=1;entryDx=0;entryDy=0;" edge="1" parent="1" target="6pjKdoYzPDsMWgRs2YGZ-16">
          <mxGeometry width="50" height="50" relative="1" as="geometry">
            <mxPoint x="171" y="635" as="sourcePoint" />
            <mxPoint x="361" y="535" as="targetPoint" />
          </mxGeometry>
        </mxCell>
        <mxCell id="6pjKdoYzPDsMWgRs2YGZ-24" value="" style="endArrow=none;html=1;rounded=0;entryX=0;entryY=0.5;entryDx=0;entryDy=0;" edge="1" parent="1" target="6pjKdoYzPDsMWgRs2YGZ-18">
          <mxGeometry width="50" height="50" relative="1" as="geometry">
            <mxPoint x="181" y="685" as="sourcePoint" />
            <mxPoint x="361" y="535" as="targetPoint" />
          </mxGeometry>
        </mxCell>
        <mxCell id="6pjKdoYzPDsMWgRs2YGZ-25" value="" style="endArrow=none;html=1;rounded=0;exitX=0.5;exitY=0;exitDx=0;exitDy=0;" edge="1" parent="1" source="6pjKdoYzPDsMWgRs2YGZ-20">
          <mxGeometry width="50" height="50" relative="1" as="geometry">
            <mxPoint x="311" y="585" as="sourcePoint" />
            <mxPoint x="151" y="715" as="targetPoint" />
          </mxGeometry>
        </mxCell>
        <mxCell id="6pjKdoYzPDsMWgRs2YGZ-27" value="" style="endArrow=none;html=1;rounded=0;exitX=1;exitY=0.5;exitDx=0;exitDy=0;" edge="1" parent="1" source="6pjKdoYzPDsMWgRs2YGZ-19">
          <mxGeometry width="50" height="50" relative="1" as="geometry">
            <mxPoint x="601" y="665" as="sourcePoint" />
            <mxPoint x="651" y="685" as="targetPoint" />
          </mxGeometry>
        </mxCell>
        <mxCell id="6pjKdoYzPDsMWgRs2YGZ-28" value="" style="endArrow=none;html=1;rounded=0;entryX=1;entryY=1;entryDx=0;entryDy=0;" edge="1" parent="1" target="6pjKdoYzPDsMWgRs2YGZ-17">
          <mxGeometry width="50" height="50" relative="1" as="geometry">
            <mxPoint x="661" y="635" as="sourcePoint" />
            <mxPoint x="661" y="605" as="targetPoint" />
          </mxGeometry>
        </mxCell>
      </root>
    </mxGraphModel>
  </diagram>
</mxfile>
